<svg width="26" height="62" viewBox="0 0 26 62" fill="none" xmlns="http://www.w3.org/2000/svg">
    <rect x="0.640137" y="42.5396" width="3.90976" height="3.71158" fill="#EDFAFF"/>
    <rect x="7.6521" y="42.5396" width="3.90976" height="3.71158" fill="#EDFAFF"/>
    <rect x="14.6638" y="42.5396" width="3.90976" height="3.71158" fill="#EDFAFF"/>
    <rect x="21.6755" y="42.5396" width="3.90976" height="3.71158" fill="#EDFAFF"/>
    <rect x="0.640137" y="47.5158" width="3.90976" height="3.71158" fill="#EDFAFF"/>
    <rect x="7.6521" y="47.5158" width="3.90976" height="3.71158" fill="#EDFAFF"/>
    <rect x="14.6638" y="47.5158" width="3.90976" height="3.71158" fill="#EDFAFF"/>
    <rect x="21.6755" y="47.5158" width="3.90976" height="3.71158" fill="#EDFAFF"/>
    <rect x="0.640137" y="52.4924" width="3.90976" height="3.71158" fill="#EDFAFF"/>
    <rect x="7.6521" y="52.4924" width="3.90976" height="3.71158" fill="#EDFAFF"/>
    <rect x="14.6638" y="52.4924" width="3.90976" height="3.71158" fill="#EDFAFF"/>
    <rect x="21.6755" y="52.4924" width="3.90976" height="3.71158" fill="#EDFAFF"/>
    <rect x="0.640137" y="57.4689" width="3.90976" height="3.71158" fill="#EDFAFF"/>
    <rect x="7.6521" y="57.4689" width="3.90976" height="3.71158" fill="#EDFAFF"/>
    <rect x="14.6638" y="57.4689" width="3.90976" height="3.71158" fill="#EDFAFF"/>
    <rect x="21.6755" y="57.4689" width="3.90976" height="3.71158" fill="#EDFAFF"/>
    <rect x="0.640137" y="21.4009" width="3.90976" height="3.71158" fill="#EDFAFF"/>
    <rect x="7.6521" y="21.4009" width="3.90976" height="3.71158" fill="#EDFAFF"/>
    <rect x="14.6638" y="21.4009" width="3.90976" height="3.71158" fill="#EDFAFF"/>
    <rect x="21.6755" y="21.4009" width="3.90976" height="3.71158" fill="#EDFAFF"/>
    <rect x="0.640137" y="26.3771" width="3.90976" height="3.71158" fill="#EDFAFF"/>
    <rect x="7.6521" y="26.3771" width="3.90976" height="3.71158" fill="#EDFAFF"/>
    <rect x="14.6638" y="26.3771" width="3.90976" height="3.71158" fill="#EDFAFF"/>
    <rect x="21.6755" y="26.3771" width="3.90976" height="3.71158" fill="#EDFAFF"/>
    <rect x="0.640137" y="31.3536" width="3.90976" height="3.71158" fill="#EDFAFF"/>
    <rect x="7.6521" y="31.3536" width="3.90976" height="3.71158" fill="#EDFAFF"/>
    <rect x="14.6638" y="31.3536" width="3.90976" height="3.71158" fill="#EDFAFF"/>
    <rect x="21.6755" y="31.3536" width="3.90976" height="3.71158" fill="#EDFAFF"/>
    <rect x="0.640137" y="36.3302" width="3.90976" height="3.71158" fill="#EDFAFF"/>
    <rect x="7.6521" y="36.3302" width="3.90976" height="3.71158" fill="#EDFAFF"/>
    <rect x="14.6638" y="36.3302" width="3.90976" height="3.71158" fill="#EDFAFF"/>
    <rect x="21.6755" y="36.3302" width="3.90976" height="3.71158" fill="#EDFAFF"/>
    <rect x="0.640137" y="0.387329" width="3.90976" height="3.71158" fill="#EDFAFF"/>
    <rect x="7.6521" y="0.387329" width="3.90976" height="3.71158" fill="#EDFAFF"/>
    <rect x="14.6638" y="0.387329" width="3.90976" height="3.71158" fill="#EDFAFF"/>
    <rect x="21.6755" y="0.387329" width="3.90976" height="3.71158" fill="#EDFAFF"/>
    <rect x="0.640137" y="5.36353" width="3.90976" height="3.71158" fill="#EDFAFF"/>
    <rect x="7.6521" y="5.36353" width="3.90976" height="3.71158" fill="#EDFAFF"/>
    <rect x="14.6638" y="5.36353" width="3.90976" height="3.71158" fill="#EDFAFF"/>
    <rect x="21.6755" y="5.36353" width="3.90976" height="3.71158" fill="#EDFAFF"/>
    <rect x="0.640137" y="10.3401" width="3.90976" height="3.71158" fill="#EDFAFF"/>
    <rect x="7.6521" y="10.3401" width="3.90976" height="3.71158" fill="#EDFAFF"/>
    <rect x="14.6638" y="10.3401" width="3.90976" height="3.71158" fill="#EDFAFF"/>
    <rect x="21.6755" y="10.3401" width="3.90976" height="3.71158" fill="#EDFAFF"/>
    <rect x="0.640137" y="15.3167" width="3.90976" height="3.71158" fill="#EDFAFF"/>
    <rect x="7.6521" y="15.3167" width="3.90976" height="3.71158" fill="#EDFAFF"/>
    <rect x="14.6638" y="15.3167" width="3.90976" height="3.71158" fill="#EDFAFF"/>
    <rect x="21.6755" y="15.3167" width="3.90976" height="3.71158" fill="#EDFAFF"/>
</svg>
